<?xml version="1.0" encoding="UTF-8"?>
<svg viewBox="0 0 1400 1200" xmlns="http://www.w3.org/2000/svg" xmlns:xlink="http://www.w3.org/1999/xlink">
  <defs>
    <linearGradient id="bgGradient3" x1="0%" y1="0%" x2="100%" y2="100%">
      <stop offset="0%" style="stop-color:#f0f7ff;stop-opacity:1" />
      <stop offset="100%" style="stop-color:#fff5f0;stop-opacity:1" />
    </linearGradient>
    <linearGradient id="logoGradient3" x1="0%" y1="0%" x2="100%" y2="100%">
      <stop offset="0%" style="stop-color:#007BFF;stop-opacity:1" />
      <stop offset="100%" style="stop-color:#FF7A00;stop-opacity:1" />
    </linearGradient>
  </defs>
  
  <!-- Background -->
  <rect width="1400" height="1200" fill="url(#bgGradient3)"/>
  
  <!-- Navbar -->
  <rect width="1400" height="70" fill="white" stroke="#e0e0e0" stroke-width="1"/>
  <circle cx="60" cy="35" r="22" fill="url(#logoGradient3)"/>
  <text x="60" y="42" font-size="24" fill="white" text-anchor="middle" font-weight="bold">⚡</text>
  <text x="100" y="42" font-size="16" font-weight="bold" fill="#1a1a1a">JBE</text>
  <text x="400" y="42" font-size="14" fill="#333">Home</text>
  <text x="500" y="42" font-size="14" fill="#333">Shop</text>
  <text x="580" y="42" font-size="14" fill="#007BFF" font-weight="bold">Shop</text>
  <text x="650" y="42" font-size="14" fill="#333">Admin</text>
  <text x="1080" y="42" font-size="13" fill="#666">Welcome, Admin User</text>
  
  <!-- Search Bar -->
  <rect x="60" y="100" width="800" height="50" fill="white" stroke="#e0e0e0" stroke-width="1" rx="12"/>
  <text x="80" y="132" font-size="14" fill="#999">🔍 Search products...</text>
  
  <!-- Filter Button -->
  <rect x="900" y="100" width="120" height="50" fill="white" stroke="#e0e0e0" stroke-width="1" rx="12"/>
  <text x="960" y="132" font-size="14" text-anchor="middle">⚙️ Filter</text>
  
  <!-- Sort Button -->
  <rect x="1050" y="100" width="120" height="50" fill="white" stroke="#e0e0e0" stroke-width="1" rx="12"/>
  <text x="1110" y="132" font-size="14" text-anchor="middle">↑↓ Sort</text>
  
  <!-- Categories Sidebar -->
  <rect x="60" y="170" width="180" height="950" fill="white" stroke="#e0e0e0" stroke-width="1" rx="16"/>
  
  <text x="80" y="200" font-size="14" font-weight="bold" fill="#1a1a1a">Categories</text>
  
  <text x="80" y="240" font-size="13" fill="#007BFF" font-weight="bold">All Products</text>
  <text x="80" y="270" font-size="13" fill="#666">Wires & Cables</text>
  <text x="80" y="300" font-size="13" fill="#666">Switches & Plugs</text>
  <text x="80" y="330" font-size="13" fill="#666">Bulbs & Lights</text>
  <text x="80" y="360" font-size="13" fill="#666">Tools</text>
  <text x="80" y="390" font-size="13" fill="#666">Pipes & Fittings</text>
  <text x="80" y="420" font-size="13" fill="#666">Accessories</text>
  
  <!-- Product Grid (4 columns) -->
  <!-- Product Card 1 -->
  <g transform="translate(280, 170)">
    <rect x="0" y="0" width="260" height="350" fill="white" stroke="#e0e0e0" stroke-width="1" rx="16"/>
    <rect x="15" y="15" width="230" height="150" fill="#f5f5f5" rx="12"/>
    <text x="130" y="95" font-size="40" text-anchor="middle">💡</text>
    
    <!-- Badge -->
    <rect x="15" y="25" width="70" height="28" fill="#FF7A00" rx="6"/>
    <text x="50" y="44" font-size="11" font-weight="bold" fill="white" text-anchor="middle">SALE</text>
    
    <text x="15" y="190" font-size="14" font-weight="bold" fill="#1a1a1a">LED Bulb 60W</text>
    <text x="15" y="210" font-size="12" fill="#666">Bright white light</text>
    <text x="15" y="235" font-size="16" font-weight="bold" fill="#007BFF">₹299</text>
    <text x="15" y="260" font-size="12" fill="#FF9800">⭐⭐⭐⭐⭐ (145)</text>
    
    <rect x="15" y="280" width="110" height="38" fill="#007BFF" rx="10"/>
    <text x="70" y="305" font-size="12" font-weight="bold" fill="white" text-anchor="middle">View</text>
    
    <rect x="135" y="280" width="110" height="38" fill="white" stroke="#FF7A00" stroke-width="2" rx="10"/>
    <text x="190" y="305" font-size="18" text-anchor="middle">🛒</text>
  </g>
  
  <!-- Product Card 2 -->
  <g transform="translate(580, 170)">
    <rect x="0" y="0" width="260" height="350" fill="white" stroke="#e0e0e0" stroke-width="1" rx="16"/>
    <rect x="15" y="15" width="230" height="150" fill="#f5f5f5" rx="12"/>
    <text x="130" y="95" font-size="40" text-anchor="middle">🧰</text>
    
    <text x="15" y="190" font-size="14" font-weight="bold" fill="#1a1a1a">Screwdriver Set</text>
    <text x="15" y="210" font-size="12" fill="#666">6-piece professional</text>
    <text x="15" y="235" font-size="16" font-weight="bold" fill="#007BFF">₹399</text>
    <text x="15" y="260" font-size="12" fill="#FF9800">⭐⭐⭐⭐☆ (89)</text>
    
    <rect x="15" y="280" width="110" height="38" fill="#007BFF" rx="10"/>
    <text x="70" y="305" font-size="12" font-weight="bold" fill="white" text-anchor="middle">View</text>
    
    <rect x="135" y="280" width="110" height="38" fill="white" stroke="#FF7A00" stroke-width="2" rx="10"/>
    <text x="190" y="305" font-size="18" text-anchor="middle">🛒</text>
  </g>
  
  <!-- Product Card 3 -->
  <g transform="translate(880, 170)">
    <rect x="0" y="0" width="260" height="350" fill="white" stroke="#e0e0e0" stroke-width="1" rx="16"/>
    <rect x="15" y="15" width="230" height="150" fill="#f5f5f5" rx="12"/>
    <text x="130" y="95" font-size="40" text-anchor="middle">📱</text>
    
    <!-- New Badge -->
    <rect x="15" y="25" width="70" height="28" fill="#17C3C0" rx="6"/>
    <text x="50" y="44" font-size="11" font-weight="bold" fill="white" text-anchor="middle">NEW</text>
    
    <text x="15" y="190" font-size="14" font-weight="bold" fill="#1a1a1a">Digital Tester</text>
    <text x="15" y="210" font-size="12" fill="#666">Multimeter device</text>
    <text x="15" y="235" font-size="16" font-weight="bold" fill="#007BFF">₹1,299</text>
    <text x="15" y="260" font-size="12" fill="#FF9800">⭐⭐⭐⭐⭐ (156)</text>
    
    <rect x="15" y="280" width="110" height="38" fill="#007BFF" rx="10"/>
    <text x="70" y="305" font-size="12" font-weight="bold" fill="white" text-anchor="middle">View</text>
    
    <rect x="135" y="280" width="110" height="38" fill="white" stroke="#FF7A00" stroke-width="2" rx="10"/>
    <text x="190" y="305" font-size="18" text-anchor="middle">🛒</text>
  </g>
  
  <!-- Product Card 4 -->
  <g transform="translate(1080, 170)">
    <rect x="0" y="0" width="260" height="350" fill="white" stroke="#e0e0e0" stroke-width="1" rx="16"/>
    <rect x="15" y="15" width="230" height="150" fill="#f5f5f5" rx="12"/>
    <text x="130" y="95" font-size="40" text-anchor="middle">🔩</text>
    
    <text x="15" y="190" font-size="14" font-weight="bold" fill="#1a1a1a">Bolt & Nut Kit</text>
    <text x="15" y="210" font-size="12" fill="#666">Assorted sizes</text>
    <text x="15" y="235" font-size="16" font-weight="bold" fill="#007BFF">₹149</text>
    <text x="15" y="260" font-size="12" fill="#FF9800">⭐⭐⭐⭐☆ (92)</text>
    
    <rect x="15" y="280" width="110" height="38" fill="#007BFF" rx="10"/>
    <text x="70" y="305" font-size="12" font-weight="bold" fill="white" text-anchor="middle">View</text>
    
    <rect x="135" y="280" width="110" height="38" fill="white" stroke="#FF7A00" stroke-width="2" rx="10"/>
    <text x="190" y="305" font-size="18" text-anchor="middle">🛒</text>
  </g>
  
  <!-- Row 2 of Products -->
  <!-- Product Card 5 -->
  <g transform="translate(280, 570)">
    <rect x="0" y="0" width="260" height="350" fill="white" stroke="#e0e0e0" stroke-width="1" rx="16"/>
    <rect x="15" y="15" width="230" height="150" fill="#f5f5f5" rx="12"/>
    <text x="130" y="95" font-size="40" text-anchor="middle">🪛</text>
    
    <text x="15" y="190" font-size="14" font-weight="bold" fill="#1a1a1a">Power Drill</text>
    <text x="15" y="210" font-size="12" fill="#666">20V rechargeable</text>
    <text x="15" y="235" font-size="16" font-weight="bold" fill="#007BFF">₹2,499</text>
    <text x="15" y="260" font-size="12" fill="#FF9800">⭐⭐⭐⭐⭐ (234)</text>
    
    <rect x="15" y="280" width="110" height="38" fill="#007BFF" rx="10"/>
    <text x="70" y="305" font-size="12" font-weight="bold" fill="white" text-anchor="middle">View</text>
    
    <rect x="135" y="280" width="110" height="38" fill="white" stroke="#FF7A00" stroke-width="2" rx="10"/>
    <text x="190" y="305" font-size="18" text-anchor="middle">🛒</text>
  </g>
  
  <!-- Product Card 6 -->
  <g transform="translate(580, 570)">
    <rect x="0" y="0" width="260" height="350" fill="white" stroke="#e0e0e0" stroke-width="1" rx="16"/>
    <rect x="15" y="15" width="230" height="150" fill="#f5f5f5" rx="12"/>
    <text x="130" y="95" font-size="40" text-anchor="middle">📦</text>
    
    <text x="15" y="190" font-size="14" font-weight="bold" fill="#1a1a1a">Wire Connectors</text>
    <text x="15" y="210" font-size="12" fill="#666">50-piece assorted</text>
    <text x="15" y="235" font-size="16" font-weight="bold" fill="#007BFF">₹199</text>
    <text x="15" y="260" font-size="12" fill="#FF9800">⭐⭐⭐⭐⭐ (178)</text>
    
    <rect x="15" y="280" width="110" height="38" fill="#007BFF" rx="10"/>
    <text x="70" y="305" font-size="12" font-weight="bold" fill="white" text-anchor="middle">View</text>
    
    <rect x="135" y="280" width="110" height="38" fill="white" stroke="#FF7A00" stroke-width="2" rx="10"/>
    <text x="190" y="305" font-size="18" text-anchor="middle">🛒</text>
  </g>
  
  <!-- Product Card 7 -->
  <g transform="translate(880, 570)">
    <rect x="0" y="0" width="260" height="350" fill="white" stroke="#e0e0e0" stroke-width="1" rx="16"/>
    <rect x="15" y="15" width="230" height="150" fill="#f5f5f5" rx="12"/>
    <text x="130" y="95" font-size="40" text-anchor="middle">💡</text>
    
    <text x="15" y="190" font-size="14" font-weight="bold" fill="#1a1a1a">LED Strip Lights</text>
    <text x="15" y="210" font-size="12" fill="#666">RGB color changing</text>
    <text x="15" y="235" font-size="16" font-weight="bold" fill="#007BFF">₹799</text>
    <text x="15" y="260" font-size="12" fill="#FF9800">⭐⭐⭐⭐☆ (134)</text>
    
    <rect x="15" y="280" width="110" height="38" fill="#007BFF" rx="10"/>
    <text x="70" y="305" font-size="12" font-weight="bold" fill="white" text-anchor="middle">View</text>
    
    <rect x="135" y="280" width="110" height="38" fill="white" stroke="#FF7A00" stroke-width="2" rx="10"/>
    <text x="190" y="305" font-size="18" text-anchor="middle">🛒</text>
  </g>
  
  <!-- Product Card 8 -->
  <g transform="translate(1080, 570)">
    <rect x="0" y="0" width="260" height="350" fill="white" stroke="#e0e0e0" stroke-width="1" rx="16"/>
    <rect x="15" y="15" width="230" height="150" fill="#f5f5f5" rx="12"/>
    <text x="130" y="95" font-size="40" text-anchor="middle">🔧</text>
    
    <text x="15" y="190" font-size="14" font-weight="bold" fill="#1a1a1a">Wrench Set</text>
    <text x="15" y="210" font-size="12" fill="#666">12-piece combo</text>
    <text x="15" y="235" font-size="16" font-weight="bold" fill="#007BFF">₹599</text>
    <text x="15" y="260" font-size="12" fill="#FF9800">⭐⭐⭐⭐⭐ (198)</text>
    
    <rect x="15" y="280" width="110" height="38" fill="#007BFF" rx="10"/>
    <text x="70" y="305" font-size="12" font-weight="bold" fill="white" text-anchor="middle">View</text>
    
    <rect x="135" y="280" width="110" height="38" fill="white" stroke="#FF7A00" stroke-width="2" rx="10"/>
    <text x="190" y="305" font-size="18" text-anchor="middle">🛒</text>
  </g>
  
  <!-- Pagination -->
  <text x="700" y="1080" font-size="13" fill="#666" text-anchor="middle">Page 1 of 5</text>
  <text x="700" y="1110" font-size="13" fill="#007BFF" font-weight="bold" text-anchor="middle">← Previous | Next →</text>
</svg>